{"title":"Resident Evil Afterlife R5 LINE H264 Feel-Free","uid":5869199,"size":1169697293,"categoryP":"video","categoryS":"movies","magnet":"?xt=urn:btih:f050813e15322490ba702c46bbb83976eff940eb&amp;dn=Resident+Evil+Afterlife+R5+LINE+H264+Feel-Free&amp;tr=udp%3A%2F%2Ftracker.openbittorrent.com%3A80&amp;tr=udp%3A%2F%2Fopen.demonii.com%3A1337&amp;tr=udp%3A%2F%2Ftracker.coppersurfer.tk%3A6969&amp;tr=udp%3A%2F%2Fexodus.desync.com%3A6969","seeders":0,"leechers":0,"uploader":"neon","files":-1,"time":1286394021,"description":"Genre:Action | Horror | Sci-Fi | Thriller\nLanguage: English\nIMDB:http://www.imdb.com/title/tt1220634/\nSource:DVD9/Twizted\nSubtitles:Romana\n\n\nGeneral\nComplete name :Resident Evil Afterlife R5 LINE H264 Feel-Free\nFormat : MPEG-4\nFormat profile : Base Media\nCodec ID : isom\nFile size : 1.09 GiB\nDuration : 1h 32mn\nOverall bit rate : 1 679 Kbps\nVideo #2\nCodec ID : avc1\nCodec ID/Info : Advanced Video Coding\nDuration : 1h 32mn\nBit rate mode : Variable\nBit rate : 1 513 Kbps\nWidth : 720 pixels\nHeight : 304 pixels\nDisplay aspect ratio : 2.35:1\nFrame rate mode : Constant\nFrame rate : 25.000 fps\nResolution : 24 bits\nColorimetry : 4:2:0\nScan type : Progressive\nBits/(Pixel*Frame) : 0.277\nStream size : 1 005 MiB (90%)\nAudio #1\nID : 1\nFormat : AAC\nFormat/Info : Advanced Audio Codec\nFormat version : Version 4\nFormat profile : LC\nFormat settings, SBR : No\nCodec ID : 40\nDuration : 1h 32mn\nBit rate mode : Constant\nBit rate : 160 Kbps\nChannel(s) : 2 channels\nChannel positions : L R\nSampling rate : 48.0 KHz\nResolution : 16 bits\nStream size : 106 MiB (10%)\n\nPlot:\nIn a world ravaged by a virus infection, turning its victims into the Undead, Alice (Jovovich)\n","torrent":{"xt":"urn:btih:f050813e15322490ba702c46bbb83976eff940eb","amp;dn":"Resident+Evil+Afterlife+R5+LINE+H264+Feel-Free","amp;tr":["udp%3A%2F%2Ftracker.openbittorrent.com%3A80","udp%3A%2F%2Fopen.demonii.com%3A1337","udp%3A%2F%2Ftracker.coppersurfer.tk%3A6969","udp%3A%2F%2Fexodus.desync.com%3A6969"],"infoHash":"f050813e15322490ba702c46bbb83976eff940eb","infoHashBuffer":{"type":"Buffer","data":[240,80,129,62,21,50,36,144,186,112,44,70,187,184,57,118,239,249,64,235]},"announce":[],"urlList":[]}}